<svg width="37" height="37" viewBox="0 0 37 37" fill="none" xmlns="http://www.w3.org/2000/svg">
<rect x="0.296875" y="0.860352" width="35.8791" height="35.8791" rx="17.9395" fill="black"/>
<path d="M18.2399 10.3022C18.4711 10.3023 18.6943 10.3872 18.8672 10.5409C19.04 10.6945 19.1504 10.9063 19.1774 11.136L19.184 11.2464V26.3534C19.1838 26.5941 19.0916 26.8255 18.9264 27.0005C18.7612 27.1755 18.5354 27.2808 18.2952 27.2949C18.055 27.309 17.8184 27.2309 17.6339 27.0764C17.4493 26.9219 17.3307 26.7028 17.3023 26.4639L17.2957 26.3534V11.2464C17.2957 10.996 17.3952 10.7559 17.5722 10.5788C17.7493 10.4017 17.9894 10.3022 18.2399 10.3022ZM14.4631 13.1348C14.7135 13.1348 14.9537 13.2343 15.1308 13.4114C15.3078 13.5884 15.4073 13.8286 15.4073 14.079V23.5209C15.4073 23.7713 15.3078 24.0114 15.1308 24.1885C14.9537 24.3656 14.7135 24.465 14.4631 24.465C14.2127 24.465 13.9725 24.3656 13.7955 24.1885C13.6184 24.0114 13.5189 23.7713 13.5189 23.5209V14.079C13.5189 13.8286 13.6184 13.5884 13.7955 13.4114C13.9725 13.2343 14.2127 13.1348 14.4631 13.1348ZM22.0166 13.1348C22.267 13.1348 22.5072 13.2343 22.6842 13.4114C22.8613 13.5884 22.9608 13.8286 22.9608 14.079V23.5209C22.9608 23.7713 22.8613 24.0114 22.6842 24.1885C22.5072 24.3656 22.267 24.465 22.0166 24.465C21.7662 24.465 21.526 24.3656 21.349 24.1885C21.1719 24.0114 21.0724 23.7713 21.0724 23.5209V14.079C21.0724 13.8286 21.1719 13.5884 21.349 13.4114C21.526 13.2343 21.7662 13.1348 22.0166 13.1348ZM10.6864 15.9674C10.9368 15.9674 11.1769 16.0668 11.354 16.2439C11.5311 16.421 11.6306 16.6611 11.6306 16.9115V20.6883C11.6306 20.9387 11.5311 21.1789 11.354 21.3559C11.1769 21.533 10.9368 21.6325 10.6864 21.6325C10.436 21.6325 10.1958 21.533 10.0187 21.3559C9.84166 21.1789 9.74219 20.9387 9.74219 20.6883V16.9115C9.74219 16.6611 9.84166 16.421 10.0187 16.2439C10.1958 16.0668 10.436 15.9674 10.6864 15.9674ZM25.7933 15.9674C26.0246 15.9674 26.2478 16.0523 26.4206 16.206C26.5935 16.3596 26.7039 16.5714 26.7309 16.8011L26.7375 16.9115V20.6883C26.7373 20.9289 26.6451 21.1604 26.4799 21.3354C26.3147 21.5104 26.0889 21.6157 25.8487 21.6298C25.6084 21.6439 25.3719 21.5657 25.1873 21.4113C25.0028 21.2568 24.8842 21.0377 24.8558 20.7988L24.8492 20.6883V16.9115C24.8492 16.6611 24.9486 16.421 25.1257 16.2439C25.3028 16.0668 25.5429 15.9674 25.7933 15.9674Z" fill="white"/>
</svg>
