<svg width="24" height="25" viewBox="0 0 24 25" fill="none" xmlns="http://www.w3.org/2000/svg">
<path opacity="0.5" d="M3 12.5C3 16.271 3 20.157 4.318 21.328C5.636 22.5 7.758 22.5 12 22.5C16.242 22.5 18.364 22.5 19.682 21.328C21 20.156 21 16.271 21 12.5" stroke="#545454" stroke-width="1.5"/>
<path d="M14.66 14.702L20.668 12.9C21.263 12.721 21.561 12.632 21.75 12.418C21.787 12.3762 21.8205 12.3314 21.85 12.284C22 12.041 22 11.731 22 11.109C22 8.659 22 7.434 21.327 6.607C21.1976 6.44788 21.0521 6.30245 20.893 6.173C20.066 5.5 18.841 5.5 16.391 5.5H7.61C5.16 5.5 3.935 5.5 3.108 6.173C2.948 6.303 2.80333 6.44767 2.674 6.607C2 7.434 2 8.659 2 11.109C2 11.731 2 12.041 2.15 12.284C2.18 12.3307 2.21333 12.3753 2.25 12.418C2.44 12.632 2.737 12.721 3.332 12.9L9.34 14.702" stroke="#545454" stroke-width="1.5"/>
<path opacity="0.5" d="M6.5 5.5C7.323 5.48 8.16 4.955 8.44 4.18L8.475 4.077L8.5 4C8.542 3.873 8.564 3.81 8.586 3.754C8.72726 3.40281 8.96529 3.09892 9.27241 2.87765C9.57954 2.65638 9.94315 2.52681 10.321 2.504C10.38 2.5 10.448 2.5 10.58 2.5H13.418C13.551 2.5 13.618 2.5 13.678 2.504C14.0558 2.52681 14.4195 2.65638 14.7266 2.87765C15.0337 3.09892 15.2717 3.40281 15.413 3.754C15.436 3.81 15.457 3.874 15.499 4L15.525 4.077C15.543 4.13 15.551 4.157 15.56 4.18C15.84 4.955 16.676 5.48 17.499 5.5" stroke="#545454" stroke-width="1.5"/>
<path d="M14 13H10C9.86739 13 9.74021 13.0527 9.64645 13.1464C9.55268 13.2402 9.5 13.3674 9.5 13.5V15.662C9.50002 15.7619 9.52994 15.8594 9.58591 15.9421C9.64187 16.0248 9.72131 16.0889 9.814 16.126L10.514 16.406C11.4679 16.7877 12.5321 16.7877 13.486 16.406L14.186 16.126C14.2787 16.0889 14.3581 16.0248 14.4141 15.9421C14.4701 15.8594 14.5 15.7619 14.5 15.662V13.5C14.5 13.3674 14.4473 13.2402 14.3536 13.1464C14.2598 13.0527 14.1326 13 14 13Z" stroke="#545454" stroke-width="1.5" stroke-linecap="round"/>
</svg>
