<svg width="19" height="18" viewBox="0 0 19 18" fill="none" xmlns="http://www.w3.org/2000/svg">
<path d="M9 18C7.75733 18 6.58867 17.7633 5.494 17.29C4.39933 16.816 3.447 16.174 2.637 15.364C1.82633 14.5533 1.18433 13.6007 0.711 12.506C0.237 11.4113 0 10.2427 0 9C0 7.75733 0.236667 6.58867 0.71 5.494C1.18333 4.39933 1.82567 3.447 2.637 2.637C3.44833 1.827 4.40067 1.18467 5.494 0.71C6.58933 0.236667 7.758 0 9 0C11.3307 0 13.3413 0.769 15.032 2.307C16.7227 3.845 17.6903 5.74467 17.935 8.006H16.923C16.7477 6.55867 16.225 5.25967 15.355 4.109C14.485 2.95833 13.3667 2.10933 12 1.562V2C12 2.55 11.8043 3.021 11.413 3.413C11.0217 3.805 10.5507 4.00067 10 4H8V6C8 6.28333 7.904 6.521 7.712 6.713C7.52 6.905 7.28267 7.00067 7 7H5V9H6.846V12H6L1.2 7.2C1.15 7.5 1.10433 7.8 1.063 8.1C1.02167 8.4 1.00067 8.7 1 9C1 11.1833 1.76667 13.0583 3.3 14.625C4.83333 16.1917 6.73333 16.9833 9 17V18ZM18.023 17.73L14.573 14.32C14.2743 14.5327 13.9507 14.6993 13.602 14.82C13.2533 14.94 12.886 15 12.5 15C11.5193 15 10.691 14.662 10.015 13.986C9.33833 13.3087 9 12.48 9 11.5C9 10.52 9.33833 9.69167 10.015 9.015C10.6917 8.33833 11.52 8 12.5 8C13.48 8 14.3087 8.33833 14.986 9.015C15.6633 9.69167 16.0013 10.52 16 11.5C16 11.8987 15.9367 12.2753 15.81 12.63C15.6833 12.9853 15.5067 13.3123 15.28 13.611L18.73 17.023L18.023 17.73ZM12.5 14C13.2 14 13.7917 13.7583 14.275 13.275C14.7583 12.7917 15 12.2 15 11.5C15 10.8 14.7583 10.2083 14.275 9.725C13.7917 9.24167 13.2 9 12.5 9C11.8 9 11.2083 9.24167 10.725 9.725C10.2417 10.2083 10 10.8 10 11.5C10 12.2 10.2417 12.7917 10.725 13.275C11.2083 13.7583 11.8 14 12.5 14Z" fill="#545454"/>
</svg>
