<svg width="24" height="25" viewBox="0 0 24 25" fill="none" xmlns="http://www.w3.org/2000/svg">
<path d="M9.10613 5.948C9.70413 4.198 12.1221 4.145 12.8311 5.789L12.8911 5.949L13.6981 8.309C13.8831 8.85023 14.1819 9.34551 14.5746 9.76142C14.9672 10.1773 15.4444 10.5042 15.9741 10.72L16.1911 10.801L18.5511 11.607C20.3011 12.205 20.3541 14.623 18.7111 15.332L18.5511 15.392L16.1911 16.199C15.6497 16.3838 15.1542 16.6826 14.7381 17.0753C14.3221 17.4679 13.995 17.9452 13.7791 18.475L13.6981 18.691L12.8921 21.052C12.2941 22.802 9.87613 22.855 9.16813 21.212L9.10613 21.052L8.30013 18.692C8.11531 18.1506 7.8165 17.6551 7.42387 17.239C7.03124 16.8229 6.55392 16.4959 6.02413 16.28L5.80813 16.199L3.44813 15.393C1.69713 14.795 1.64413 12.377 3.28813 11.669L3.44813 11.607L5.80813 10.801C6.34936 10.6161 6.84464 10.3172 7.26055 9.92457C7.67646 9.53195 8.00334 9.05469 8.21913 8.525L8.30013 8.309L9.10613 5.948ZM10.9991 6.594L10.1931 8.954C9.91152 9.7793 9.4534 10.5333 8.85066 11.1635C8.24793 11.7937 7.51507 12.2849 6.70313 12.603L6.45313 12.694L4.09313 13.5L6.45313 14.306C7.27843 14.5876 8.03243 15.0457 8.66262 15.6485C9.29282 16.2512 9.78405 16.9841 10.1021 17.796L10.1931 18.046L10.9991 20.406L11.8051 18.046C12.0867 17.2207 12.5449 16.4667 13.1476 15.8365C13.7503 15.2063 14.4832 14.7151 15.2951 14.397L15.5451 14.307L17.9051 13.5L15.5451 12.694C14.7198 12.4124 13.9658 11.9543 13.3356 11.3515C12.7054 10.7488 12.2142 10.0159 11.8961 9.204L11.8061 8.954L10.9991 6.594ZM18.9991 2.5C19.1862 2.5 19.3695 2.55248 19.5283 2.65147C19.687 2.75046 19.8148 2.892 19.8971 3.06L19.9451 3.177L20.2951 4.203L21.3221 4.553C21.5096 4.6167 21.674 4.73462 21.7944 4.89182C21.9148 5.04902 21.9858 5.23842 21.9984 5.43602C22.011 5.63362 21.9647 5.83053 21.8653 6.00179C21.766 6.17304 21.618 6.31094 21.4401 6.398L21.3221 6.446L20.2961 6.796L19.9461 7.823C19.8823 8.01043 19.7643 8.1747 19.6071 8.29499C19.4498 8.41529 19.2604 8.48619 19.0628 8.49872C18.8652 8.51125 18.6683 8.46484 18.4971 8.36538C18.3259 8.26591 18.1881 8.11787 18.1011 7.94L18.0531 7.823L17.7031 6.797L16.6761 6.447C16.4886 6.3833 16.3243 6.26538 16.2039 6.10819C16.0835 5.95099 16.0125 5.76158 15.9999 5.56398C15.9872 5.36638 16.0335 5.16947 16.1329 4.99821C16.2323 4.82696 16.3803 4.68906 16.5581 4.602L16.6761 4.554L17.7021 4.204L18.0521 3.177C18.1196 2.97943 18.2471 2.80791 18.417 2.6865C18.5868 2.56509 18.7904 2.49987 18.9991 2.5Z" fill="black"/>
</svg>
